<svg width="17" height="17" viewBox="0 0 17 17" fill="none" xmlns="http://www.w3.org/2000/svg">
<path d="M8.49935 4.54167C7.66856 4.54167 6.85884 4.80307 6.18487 5.28884C5.5109 5.77461 5.00686 6.46012 4.74414 7.24827C4.48143 8.03642 4.47335 8.88726 4.72107 9.68025C4.96878 10.4732 5.45972 11.1682 6.12435 11.6667V14.8333C6.12435 15.2533 6.29116 15.656 6.5881 15.9529C6.88503 16.2499 7.28776 16.4167 7.70768 16.4167H9.29102C9.71094 16.4167 10.1137 16.2499 10.4106 15.9529C10.7075 15.656 10.8743 15.2533 10.8743 14.8333V11.6667C11.539 11.1682 12.0299 10.4732 12.2776 9.68025C12.5253 8.88726 12.5173 8.03642 12.2546 7.24827C11.9918 6.46012 11.4878 5.77461 10.8138 5.28884C10.1399 4.80307 9.33013 4.54167 8.49935 4.54167ZM9.68685 10.5504C9.56604 10.6202 9.4658 10.7206 9.39629 10.8416C9.32678 10.9625 9.29046 11.0997 9.29102 11.2392V14.8333H7.70768V11.2392C7.70824 11.0997 7.67192 10.9625 7.60241 10.8416C7.5329 10.7206 7.43266 10.6202 7.31185 10.5504C6.95174 10.3425 6.65253 10.0437 6.44413 9.68388C6.23574 9.32405 6.12547 8.91582 6.12435 8.50001C6.12435 7.87012 6.37457 7.26603 6.81997 6.82063C7.26537 6.37523 7.86946 6.12501 8.49935 6.12501C9.12924 6.12501 9.73333 6.37523 10.1787 6.82063C10.6241 7.26603 10.8743 7.87012 10.8743 8.50001C10.8732 8.91582 10.763 9.32405 10.5546 9.68388C10.3462 10.0437 10.047 10.3425 9.68685 10.5504Z" fill="white"/>
<path d="M8.4987 3.75C8.70866 3.75 8.91002 3.66659 9.05849 3.51813C9.20696 3.36966 9.29036 3.1683 9.29036 2.95834V1.375C9.29036 1.16504 9.20696 0.963676 9.05849 0.81521C8.91002 0.666743 8.70866 0.583336 8.4987 0.583336C8.28873 0.583336 8.08737 0.666743 7.93891 0.81521C7.79044 0.963676 7.70703 1.16504 7.70703 1.375V2.95834C7.70703 3.1683 7.79044 3.36966 7.93891 3.51813C8.08737 3.66659 8.28873 3.75 8.4987 3.75Z" fill="white"/>
<path d="M15.623 7.70834H14.0397C13.8298 7.70834 13.6284 7.79174 13.4799 7.94021C13.3315 8.08868 13.248 8.29004 13.248 8.5C13.248 8.70997 13.3315 8.91133 13.4799 9.0598C13.6284 9.20826 13.8298 9.29167 14.0397 9.29167H15.623C15.833 9.29167 16.0344 9.20826 16.1828 9.0598C16.3313 8.91133 16.4147 8.70997 16.4147 8.5C16.4147 8.29004 16.3313 8.08868 16.1828 7.94021C16.0344 7.79174 15.833 7.70834 15.623 7.70834Z" fill="white"/>
<path d="M2.95703 7.70834H1.3737C1.16373 7.70834 0.962371 7.79174 0.813905 7.94021C0.665439 8.08868 0.582031 8.29004 0.582031 8.5C0.582031 8.70997 0.665439 8.91133 0.813905 9.0598C0.962371 9.20826 1.16373 9.29167 1.3737 9.29167H2.95703C3.16699 9.29167 3.36836 9.20826 3.51682 9.0598C3.66529 8.91133 3.7487 8.70997 3.7487 8.5C3.7487 8.29004 3.66529 8.08868 3.51682 7.94021C3.36836 7.79174 3.16699 7.70834 2.95703 7.70834Z" fill="white"/>
<path d="M5.06329 4.0825L3.92329 2.95833C3.76897 2.81241 3.563 2.73376 3.35069 2.7397C3.13838 2.74564 2.93713 2.83567 2.79121 2.99C2.64528 3.14432 2.56664 3.35029 2.57258 3.5626C2.57852 3.7749 2.66855 3.97616 2.82287 4.12208L3.96287 5.2225C4.03938 5.29637 4.12998 5.35407 4.22927 5.39215C4.32856 5.43024 4.43451 5.44793 4.54079 5.44416C4.64743 5.44376 4.75289 5.42181 4.85084 5.37964C4.94879 5.33746 5.03721 5.27594 5.11079 5.19875C5.25211 5.04423 5.32645 4.84002 5.31755 4.63081C5.30864 4.42161 5.21722 4.22445 5.06329 4.0825Z" fill="white"/>
<path d="M14.1896 2.99791C14.0413 2.85046 13.8406 2.7677 13.6315 2.7677C13.4223 2.7677 13.2217 2.85046 13.0733 2.99791L11.9333 4.08249C11.7859 4.23082 11.7031 4.43147 11.7031 4.64062C11.7031 4.84977 11.7859 5.05042 11.9333 5.19874C12.0069 5.27593 12.0953 5.33746 12.1933 5.37963C12.2912 5.42181 12.3967 5.44375 12.5033 5.44416C12.7072 5.44335 12.9028 5.36395 13.0496 5.22249L14.1896 4.12208C14.2638 4.04848 14.3227 3.96092 14.3629 3.86445C14.4031 3.76798 14.4238 3.6645 14.4238 3.55999C14.4238 3.45549 14.4031 3.35201 14.3629 3.25554C14.3227 3.15907 14.2638 3.07151 14.1896 2.99791Z" fill="white"/>
</svg>
