<svg width="22" height="22" viewBox="0 0 22 22" fill="none" xmlns="http://www.w3.org/2000/svg">
<path d="M15.4107 3.00001C17.3507 3.00001 18.9107 4.57001 18.9107 6.50001C18.9107 8.39001 17.4107 9.93 15.5407 10C15.4543 9.99 15.3671 9.99 15.2807 10M17.3407 19C18.0607 18.85 18.7407 18.56 19.3007 18.13C20.8607 16.96 20.8607 15.03 19.3007 13.86C18.7507 13.44 18.0807 13.16 17.3707 13M8.1607 9.87C8.0607 9.86 7.9407 9.86 7.8307 9.87C6.68291 9.83103 5.59535 9.34684 4.79833 8.51996C4.00132 7.69309 3.55744 6.58846 3.5607 5.44001C3.5607 2.99001 5.5407 1.00001 8.0007 1.00001C9.17694 0.978788 10.3134 1.4257 11.1602 2.24242C12.0069 3.05914 12.4945 4.17877 12.5157 5.35501C12.5369 6.53124 12.09 7.66773 11.2733 8.51446C10.4566 9.36118 9.33694 9.84879 8.1607 9.87ZM3.1607 13.56C0.740703 15.18 0.740703 17.82 3.1607 19.43C5.9107 21.27 10.4207 21.27 13.1707 19.43C15.5907 17.81 15.5907 15.17 13.1707 13.56C10.4307 11.73 5.9207 11.73 3.1607 13.56Z" stroke="black" stroke-width="1.5" stroke-linecap="round" stroke-linejoin="round"/>
</svg>
