<svg width="21" height="18" viewBox="0 0 21 18" fill="none" xmlns="http://www.w3.org/2000/svg">
<path d="M10.5001 17.875C10.363 17.8758 10.2271 17.8495 10.1002 17.7977C9.97327 17.7458 9.85784 17.6695 9.76051 17.5729L1.66676 9.46875C0.651509 8.4429 0.0820313 7.05789 0.0820312 5.61459C0.0820313 4.17129 0.651509 2.78628 1.66676 1.76042C2.68995 0.740118 4.07596 0.16716 5.52092 0.16716C6.96589 0.16716 8.3519 0.740118 9.37509 1.76042L10.5001 2.88542L11.6251 1.76042C12.6483 0.740118 14.0343 0.16716 15.4793 0.16716C16.9242 0.16716 18.3102 0.740118 19.3334 1.76042C20.3487 2.78628 20.9181 4.17129 20.9181 5.61459C20.9181 7.05789 20.3487 8.4429 19.3334 9.46875L11.2397 17.5729C11.1423 17.6695 11.0269 17.7458 10.9 17.7977C10.7731 17.8495 10.6372 17.8758 10.5001 17.875Z" fill="#FF0000"/>
</svg>
