<svg width="12" height="16" viewBox="0 0 12 16" fill="none" xmlns="http://www.w3.org/2000/svg">
<path d="M6 0.5C4.41904 0.499921 2.90194 1.12382 1.77843 2.23609C0.654923 3.34837 0.0158096 4.85912 0 6.44C0 10.55 5.2875 15.125 5.5125 15.32C5.64835 15.4362 5.82124 15.5 6 15.5C6.17876 15.5 6.35165 15.4362 6.4875 15.32C6.75 15.125 12 10.55 12 6.44C11.9842 4.85912 11.3451 3.34837 10.2216 2.23609C9.09806 1.12382 7.58096 0.499921 6 0.5ZM6 13.7375C4.7475 12.545 1.5 9.2375 1.5 6.44C1.5 5.24653 1.97411 4.10193 2.81802 3.25802C3.66193 2.41411 4.80653 1.94 6 1.94C7.19347 1.94 8.33807 2.41411 9.18198 3.25802C10.0259 4.10193 10.5 5.24653 10.5 6.44C10.5 9.215 7.2525 12.545 6 13.7375Z" fill="white"/>
<path d="M6 3.5C5.48083 3.5 4.97331 3.65395 4.54163 3.94239C4.10995 4.23083 3.7735 4.6408 3.57482 5.12046C3.37614 5.60011 3.32415 6.12791 3.42544 6.63711C3.52673 7.14631 3.77673 7.61404 4.14385 7.98116C4.51096 8.34827 4.97869 8.59828 5.48789 8.69956C5.99709 8.80085 6.52489 8.74886 7.00455 8.55018C7.4842 8.3515 7.89417 8.01505 8.18261 7.58337C8.47105 7.15169 8.625 6.64418 8.625 6.125C8.625 5.42881 8.34844 4.76113 7.85616 4.26884C7.36387 3.77656 6.69619 3.5 6 3.5ZM6 7.25C5.7775 7.25 5.55999 7.18402 5.37499 7.0604C5.18998 6.93679 5.04579 6.76109 4.96064 6.55552C4.87549 6.34995 4.85321 6.12375 4.89662 5.90552C4.94003 5.68729 5.04717 5.48684 5.20451 5.3295C5.36184 5.17217 5.5623 5.06502 5.78052 5.02162C5.99875 4.97821 6.22495 5.00049 6.43052 5.08564C6.63609 5.17078 6.81179 5.31498 6.93541 5.49998C7.05902 5.68499 7.125 5.9025 7.125 6.125C7.125 6.42337 7.00648 6.70952 6.7955 6.9205C6.58452 7.13147 6.29837 7.25 6 7.25Z" fill="white"/>
</svg>
