<svg width="21" height="18" viewBox="0 0 21 18" fill="none" xmlns="http://www.w3.org/2000/svg">
<path d="M10.4981 17.875C10.361 17.8758 10.2252 17.8495 10.0982 17.7977C9.97132 17.7458 9.85589 17.6695 9.75855 17.5729L1.6648 9.46875C0.649556 8.44289 0.0800781 7.05788 0.0800781 5.61458C0.0800781 4.17128 0.649556 2.78627 1.6648 1.76042C2.68799 0.740114 4.074 0.167156 5.51897 0.167156C6.96394 0.167156 8.34995 0.740114 9.37314 1.76042L10.4981 2.88542L11.6231 1.76042C12.6463 0.740114 14.0323 0.167156 15.4773 0.167156C16.9223 0.167156 18.3083 0.740114 19.3315 1.76042C20.3467 2.78627 20.9162 4.17128 20.9162 5.61458C20.9162 7.05788 20.3467 8.44289 19.3315 9.46875L11.2377 17.5729C11.1404 17.6695 11.025 17.7458 10.898 17.7977C10.7711 17.8495 10.6352 17.8758 10.4981 17.875ZM5.51897 2.25C5.07801 2.248 4.64103 2.33352 4.23336 2.5016C3.82568 2.66968 3.4554 2.91697 3.14397 3.22917C2.51487 3.86158 2.16172 4.71734 2.16172 5.60937C2.16172 6.50141 2.51487 7.35716 3.14397 7.98958L10.4981 15.3542L17.8523 7.98958C18.4814 7.35716 18.8346 6.50141 18.8346 5.60937C18.8346 4.71734 18.4814 3.86158 17.8523 3.22917C17.2103 2.62261 16.3605 2.28468 15.4773 2.28468C14.5941 2.28468 13.7443 2.62261 13.1023 3.22917L11.2377 5.10417C11.1409 5.2018 11.0257 5.27929 10.8987 5.33218C10.7718 5.38506 10.6357 5.41229 10.4981 5.41229C10.3606 5.41229 10.2245 5.38506 10.0975 5.33218C9.9706 5.27929 9.85539 5.2018 9.75855 5.10417L7.89397 3.22917C7.58254 2.91697 7.21227 2.66968 6.80459 2.5016C6.39691 2.33352 5.95993 2.248 5.51897 2.25Z" fill="#231F20"/>
</svg>
